<mxfile host="app.diagrams.net" modified="2024-06-07T08:24:59.386Z" agent="Mozilla/5.0 (Windows NT 10.0; Win64; x64; rv:126.0) Gecko/20100101 Firefox/126.0" etag="f7zUfSWV9zRqOpyfaZOz" version="21.7.5" type="device">
  <diagram name="Seite-1" id="V37iRD1plDs-bDh3GgVA">
    <mxGraphModel dx="1434" dy="747" grid="1" gridSize="10" guides="1" tooltips="1" connect="1" arrows="1" fold="1" page="1" pageScale="1" pageWidth="827" pageHeight="1169" math="0" shadow="0">
      <root>
        <mxCell id="0" />
        <mxCell id="1" parent="0" />
        <mxCell id="HjvzV6pIBZK6yzrlRa3x-1" value="Mutex" style="rounded=0;whiteSpace=wrap;html=1;fillColor=#fff2cc;strokeColor=#d6b656;" vertex="1" parent="1">
          <mxGeometry x="270" y="120" width="120" height="60" as="geometry" />
        </mxCell>
        <mxCell id="HjvzV6pIBZK6yzrlRa3x-2" value="buf" style="rounded=0;whiteSpace=wrap;html=1;fillColor=#d5e8d4;strokeColor=#82b366;" vertex="1" parent="1">
          <mxGeometry x="270" y="180" width="120" height="60" as="geometry" />
        </mxCell>
        <mxCell id="HjvzV6pIBZK6yzrlRa3x-3" value="count" style="rounded=0;whiteSpace=wrap;html=1;fillColor=#d5e8d4;strokeColor=#82b366;" vertex="1" parent="1">
          <mxGeometry x="270" y="240" width="120" height="60" as="geometry" />
        </mxCell>
        <mxCell id="HjvzV6pIBZK6yzrlRa3x-4" value="datatype" style="rounded=0;whiteSpace=wrap;html=1;fillColor=#d5e8d4;strokeColor=#82b366;" vertex="1" parent="1">
          <mxGeometry x="270" y="300" width="120" height="60" as="geometry" />
        </mxCell>
        <mxCell id="HjvzV6pIBZK6yzrlRa3x-5" value="dest&lt;br&gt;&lt;i&gt;(nur für ISend)&lt;/i&gt;" style="rounded=0;whiteSpace=wrap;html=1;fillColor=#d5e8d4;strokeColor=#82b366;" vertex="1" parent="1">
          <mxGeometry x="270" y="360" width="120" height="60" as="geometry" />
        </mxCell>
        <mxCell id="HjvzV6pIBZK6yzrlRa3x-7" value="source&lt;br&gt;&lt;i&gt;(nur für IRecv)&lt;/i&gt;" style="rounded=0;whiteSpace=wrap;html=1;fillColor=#d5e8d4;strokeColor=#82b366;" vertex="1" parent="1">
          <mxGeometry x="270" y="420" width="120" height="60" as="geometry" />
        </mxCell>
        <mxCell id="HjvzV6pIBZK6yzrlRa3x-8" value="len&lt;br&gt;&lt;i&gt;(nur für IRecv)&lt;/i&gt;" style="rounded=0;whiteSpace=wrap;html=1;fillColor=#d5e8d4;strokeColor=#82b366;" vertex="1" parent="1">
          <mxGeometry x="270" y="480" width="120" height="60" as="geometry" />
        </mxCell>
        <mxCell id="HjvzV6pIBZK6yzrlRa3x-10" value="" style="shape=curlyBracket;whiteSpace=wrap;html=1;rounded=1;flipH=1;labelPosition=right;verticalLabelPosition=middle;align=left;verticalAlign=middle;" vertex="1" parent="1">
          <mxGeometry x="420" y="180" width="40" height="360" as="geometry" />
        </mxCell>
        <mxCell id="HjvzV6pIBZK6yzrlRa3x-11" value="Synchronisierung des Zugriffs auf Struct-Inhalte" style="text;html=1;strokeColor=none;fillColor=none;align=center;verticalAlign=middle;whiteSpace=wrap;rounded=0;" vertex="1" parent="1">
          <mxGeometry x="405" y="135" width="180" height="30" as="geometry" />
        </mxCell>
        <mxCell id="HjvzV6pIBZK6yzrlRa3x-12" value="Parameter für Send bzw. Recv" style="text;html=1;strokeColor=none;fillColor=none;align=center;verticalAlign=middle;whiteSpace=wrap;rounded=0;" vertex="1" parent="1">
          <mxGeometry x="470" y="340" width="180" height="30" as="geometry" />
        </mxCell>
        <mxCell id="HjvzV6pIBZK6yzrlRa3x-13" value="&lt;b&gt;Struct für&amp;nbsp; nicht blockierende Funktionen ISend und IRecv&lt;/b&gt;" style="text;html=1;align=center;verticalAlign=middle;resizable=0;points=[];autosize=1;strokeColor=none;fillColor=none;" vertex="1" parent="1">
          <mxGeometry x="155" y="60" width="350" height="30" as="geometry" />
        </mxCell>
      </root>
    </mxGraphModel>
  </diagram>
</mxfile>
